<svg xmlns="http://www.w3.org/2000/svg" viewBox="0 0 100 100" width="1024" height="1024">
    <defs>
      <linearGradient id="g15p" x1="0" y1="0" x2="0" y2="1"><stop offset="0" stop-color="#1d2530"></stop><stop offset=".5" stop-color="#10151c"></stop><stop offset="1" stop-color="#080b10"></stop></linearGradient>
      <radialGradient id="g15s" cx="50%" cy="22%" r="70%"><stop offset="0" stop-color="rgba(120,150,180,.22)"></stop><stop offset="55%" stop-color="rgba(120,150,180,0)"></stop></radialGradient>
      <radialGradient id="g15v" cx="50%" cy="100%" r="80%"><stop offset="0" stop-color="rgba(0,0,0,.45)"></stop><stop offset="60%" stop-color="rgba(0,0,0,0)"></stop></radialGradient>
      <clipPath id="g15c"><path d="M100.00,50.00L99.99,60.26L99.97,63.87L99.93,66.53L99.88,68.73L99.81,70.63L99.73,72.32L99.63,73.85L99.52,75.26L99.39,76.56L99.25,77.78L99.09,78.93L98.92,80.01L98.73,81.03L98.53,82.00L98.31,82.93L98.07,83.81L97.82,84.66L97.55,85.47L97.27,86.25L96.97,86.99L96.65,87.70L96.32,88.39L95.97,89.05L95.60,89.69L95.21,90.30L94.81,90.88L94.39,91.44L93.95,91.99L93.49,92.51L93.01,93.01L92.51,93.49L91.99,93.95L91.44,94.39L90.88,94.81L90.30,95.21L89.69,95.60L89.05,95.97L88.39,96.32L87.70,96.65L86.99,96.97L86.25,97.27L85.47,97.55L84.66,97.82L83.81,98.07L82.93,98.31L82.00,98.53L81.03,98.73L80.01,98.92L78.93,99.09L77.78,99.25L76.56,99.39L75.26,99.52L73.85,99.63L72.32,99.73L70.63,99.81L68.73,99.88L66.53,99.93L63.87,99.97L60.26,99.99L50.00,100.00L39.74,99.99L36.13,99.97L33.47,99.93L31.27,99.88L29.37,99.81L27.68,99.73L26.15,99.63L24.74,99.52L23.44,99.39L22.22,99.25L21.07,99.09L19.99,98.92L18.97,98.73L18.00,98.53L17.07,98.31L16.19,98.07L15.34,97.82L14.53,97.55L13.75,97.27L13.01,96.97L12.30,96.65L11.61,96.32L10.95,95.97L10.31,95.60L9.70,95.21L9.12,94.81L8.56,94.39L8.01,93.95L7.49,93.49L6.99,93.01L6.51,92.51L6.05,91.99L5.61,91.44L5.19,90.88L4.79,90.30L4.40,89.69L4.03,89.05L3.68,88.39L3.35,87.70L3.03,86.99L2.73,86.25L2.45,85.47L2.18,84.66L1.93,83.81L1.69,82.93L1.47,82.00L1.27,81.03L1.08,80.01L0.91,78.93L0.75,77.78L0.61,76.56L0.48,75.26L0.37,73.85L0.27,72.32L0.19,70.63L0.12,68.73L0.07,66.53L0.03,63.87L0.01,60.26L0.00,50.00L0.01,39.74L0.03,36.13L0.07,33.47L0.12,31.27L0.19,29.37L0.27,27.68L0.37,26.15L0.48,24.74L0.61,23.44L0.75,22.22L0.91,21.07L1.08,19.99L1.27,18.97L1.47,18.00L1.69,17.07L1.93,16.19L2.18,15.34L2.45,14.53L2.73,13.75L3.03,13.01L3.35,12.30L3.68,11.61L4.03,10.95L4.40,10.31L4.79,9.70L5.19,9.12L5.61,8.56L6.05,8.01L6.51,7.49L6.99,6.99L7.49,6.51L8.01,6.05L8.56,5.61L9.12,5.19L9.70,4.79L10.31,4.40L10.95,4.03L11.61,3.68L12.30,3.35L13.01,3.03L13.75,2.73L14.53,2.45L15.34,2.18L16.19,1.93L17.07,1.69L18.00,1.47L18.97,1.27L19.99,1.08L21.07,0.91L22.22,0.75L23.44,0.61L24.74,0.48L26.15,0.37L27.68,0.27L29.37,0.19L31.27,0.12L33.47,0.07L36.13,0.03L39.74,0.01L50.00,0.00L60.26,0.01L63.87,0.03L66.53,0.07L68.73,0.12L70.63,0.19L72.32,0.27L73.85,0.37L75.26,0.48L76.56,0.61L77.78,0.75L78.93,0.91L80.01,1.08L81.03,1.27L82.00,1.47L82.93,1.69L83.81,1.93L84.66,2.18L85.47,2.45L86.25,2.73L86.99,3.03L87.70,3.35L88.39,3.68L89.05,4.03L89.69,4.40L90.30,4.79L90.88,5.19L91.44,5.61L91.99,6.05L92.51,6.51L93.01,6.99L93.49,7.49L93.95,8.01L94.39,8.56L94.81,9.12L95.21,9.70L95.60,10.31L95.97,10.95L96.32,11.61L96.65,12.30L96.97,13.01L97.27,13.75L97.55,14.53L97.82,15.34L98.07,16.19L98.31,17.07L98.53,18.00L98.73,18.97L98.92,19.99L99.09,21.07L99.25,22.22L99.39,23.44L99.52,24.74L99.63,26.15L99.73,27.68L99.81,29.37L99.88,31.27L99.93,33.47L99.97,36.13L99.99,39.74L100.00,50.00Z"></path></clipPath>
    </defs>
    <path d="M100.00,50.00L99.99,60.26L99.97,63.87L99.93,66.53L99.88,68.73L99.81,70.63L99.73,72.32L99.63,73.85L99.52,75.26L99.39,76.56L99.25,77.78L99.09,78.93L98.92,80.01L98.73,81.03L98.53,82.00L98.31,82.93L98.07,83.81L97.82,84.66L97.55,85.47L97.27,86.25L96.97,86.99L96.65,87.70L96.32,88.39L95.97,89.05L95.60,89.69L95.21,90.30L94.81,90.88L94.39,91.44L93.95,91.99L93.49,92.51L93.01,93.01L92.51,93.49L91.99,93.95L91.44,94.39L90.88,94.81L90.30,95.21L89.69,95.60L89.05,95.97L88.39,96.32L87.70,96.65L86.99,96.97L86.25,97.27L85.47,97.55L84.66,97.82L83.81,98.07L82.93,98.31L82.00,98.53L81.03,98.73L80.01,98.92L78.93,99.09L77.78,99.25L76.56,99.39L75.26,99.52L73.85,99.63L72.32,99.73L70.63,99.81L68.73,99.88L66.53,99.93L63.87,99.97L60.26,99.99L50.00,100.00L39.74,99.99L36.13,99.97L33.47,99.93L31.27,99.88L29.37,99.81L27.68,99.73L26.15,99.63L24.74,99.52L23.44,99.39L22.22,99.25L21.07,99.09L19.99,98.92L18.97,98.73L18.00,98.53L17.07,98.31L16.19,98.07L15.34,97.82L14.53,97.55L13.75,97.27L13.01,96.97L12.30,96.65L11.61,96.32L10.95,95.97L10.31,95.60L9.70,95.21L9.12,94.81L8.56,94.39L8.01,93.95L7.49,93.49L6.99,93.01L6.51,92.51L6.05,91.99L5.61,91.44L5.19,90.88L4.79,90.30L4.40,89.69L4.03,89.05L3.68,88.39L3.35,87.70L3.03,86.99L2.73,86.25L2.45,85.47L2.18,84.66L1.93,83.81L1.69,82.93L1.47,82.00L1.27,81.03L1.08,80.01L0.91,78.93L0.75,77.78L0.61,76.56L0.48,75.26L0.37,73.85L0.27,72.32L0.19,70.63L0.12,68.73L0.07,66.53L0.03,63.87L0.01,60.26L0.00,50.00L0.01,39.74L0.03,36.13L0.07,33.47L0.12,31.27L0.19,29.37L0.27,27.68L0.37,26.15L0.48,24.74L0.61,23.44L0.75,22.22L0.91,21.07L1.08,19.99L1.27,18.97L1.47,18.00L1.69,17.07L1.93,16.19L2.18,15.34L2.45,14.53L2.73,13.75L3.03,13.01L3.35,12.30L3.68,11.61L4.03,10.95L4.40,10.31L4.79,9.70L5.19,9.12L5.61,8.56L6.05,8.01L6.51,7.49L6.99,6.99L7.49,6.51L8.01,6.05L8.56,5.61L9.12,5.19L9.70,4.79L10.31,4.40L10.95,4.03L11.61,3.68L12.30,3.35L13.01,3.03L13.75,2.73L14.53,2.45L15.34,2.18L16.19,1.93L17.07,1.69L18.00,1.47L18.97,1.27L19.99,1.08L21.07,0.91L22.22,0.75L23.44,0.61L24.74,0.48L26.15,0.37L27.68,0.27L29.37,0.19L31.27,0.12L33.47,0.07L36.13,0.03L39.74,0.01L50.00,0.00L60.26,0.01L63.87,0.03L66.53,0.07L68.73,0.12L70.63,0.19L72.32,0.27L73.85,0.37L75.26,0.48L76.56,0.61L77.78,0.75L78.93,0.91L80.01,1.08L81.03,1.27L82.00,1.47L82.93,1.69L83.81,1.93L84.66,2.18L85.47,2.45L86.25,2.73L86.99,3.03L87.70,3.35L88.39,3.68L89.05,4.03L89.69,4.40L90.30,4.79L90.88,5.19L91.44,5.61L91.99,6.05L92.51,6.51L93.01,6.99L93.49,7.49L93.95,8.01L94.39,8.56L94.81,9.12L95.21,9.70L95.60,10.31L95.97,10.95L96.32,11.61L96.65,12.30L96.97,13.01L97.27,13.75L97.55,14.53L97.82,15.34L98.07,16.19L98.31,17.07L98.53,18.00L98.73,18.97L98.92,19.99L99.09,21.07L99.25,22.22L99.39,23.44L99.52,24.74L99.63,26.15L99.73,27.68L99.81,29.37L99.88,31.27L99.93,33.47L99.97,36.13L99.99,39.74L100.00,50.00Z" fill="url(#g15p)"></path>
    <g clip-path="url(#g15c)"><rect width="100" height="100" fill="url(#g15s)"></rect><rect width="100" height="100" fill="url(#g15v)"></rect></g>
    <path d="M100.00,50.00L99.99,60.26L99.97,63.87L99.93,66.53L99.88,68.73L99.81,70.63L99.73,72.32L99.63,73.85L99.52,75.26L99.39,76.56L99.25,77.78L99.09,78.93L98.92,80.01L98.73,81.03L98.53,82.00L98.31,82.93L98.07,83.81L97.82,84.66L97.55,85.47L97.27,86.25L96.97,86.99L96.65,87.70L96.32,88.39L95.97,89.05L95.60,89.69L95.21,90.30L94.81,90.88L94.39,91.44L93.95,91.99L93.49,92.51L93.01,93.01L92.51,93.49L91.99,93.95L91.44,94.39L90.88,94.81L90.30,95.21L89.69,95.60L89.05,95.97L88.39,96.32L87.70,96.65L86.99,96.97L86.25,97.27L85.47,97.55L84.66,97.82L83.81,98.07L82.93,98.31L82.00,98.53L81.03,98.73L80.01,98.92L78.93,99.09L77.78,99.25L76.56,99.39L75.26,99.52L73.85,99.63L72.32,99.73L70.63,99.81L68.73,99.88L66.53,99.93L63.87,99.97L60.26,99.99L50.00,100.00L39.74,99.99L36.13,99.97L33.47,99.93L31.27,99.88L29.37,99.81L27.68,99.73L26.15,99.63L24.74,99.52L23.44,99.39L22.22,99.25L21.07,99.09L19.99,98.92L18.97,98.73L18.00,98.53L17.07,98.31L16.19,98.07L15.34,97.82L14.53,97.55L13.75,97.27L13.01,96.97L12.30,96.65L11.61,96.32L10.95,95.97L10.31,95.60L9.70,95.21L9.12,94.81L8.56,94.39L8.01,93.95L7.49,93.49L6.99,93.01L6.51,92.51L6.05,91.99L5.61,91.44L5.19,90.88L4.79,90.30L4.40,89.69L4.03,89.05L3.68,88.39L3.35,87.70L3.03,86.99L2.73,86.25L2.45,85.47L2.18,84.66L1.93,83.81L1.69,82.93L1.47,82.00L1.27,81.03L1.08,80.01L0.91,78.93L0.75,77.78L0.61,76.56L0.48,75.26L0.37,73.85L0.27,72.32L0.19,70.63L0.12,68.73L0.07,66.53L0.03,63.87L0.01,60.26L0.00,50.00L0.01,39.74L0.03,36.13L0.07,33.47L0.12,31.27L0.19,29.37L0.27,27.68L0.37,26.15L0.48,24.74L0.61,23.44L0.75,22.22L0.91,21.07L1.08,19.99L1.27,18.97L1.47,18.00L1.69,17.07L1.93,16.19L2.18,15.34L2.45,14.53L2.73,13.75L3.03,13.01L3.35,12.30L3.68,11.61L4.03,10.95L4.40,10.31L4.79,9.70L5.19,9.12L5.61,8.56L6.05,8.01L6.51,7.49L6.99,6.99L7.49,6.51L8.01,6.05L8.56,5.61L9.12,5.19L9.70,4.79L10.31,4.40L10.95,4.03L11.61,3.68L12.30,3.35L13.01,3.03L13.75,2.73L14.53,2.45L15.34,2.18L16.19,1.93L17.07,1.69L18.00,1.47L18.97,1.27L19.99,1.08L21.07,0.91L22.22,0.75L23.44,0.61L24.74,0.48L26.15,0.37L27.68,0.27L29.37,0.19L31.27,0.12L33.47,0.07L36.13,0.03L39.74,0.01L50.00,0.00L60.26,0.01L63.87,0.03L66.53,0.07L68.73,0.12L70.63,0.19L72.32,0.27L73.85,0.37L75.26,0.48L76.56,0.61L77.78,0.75L78.93,0.91L80.01,1.08L81.03,1.27L82.00,1.47L82.93,1.69L83.81,1.93L84.66,2.18L85.47,2.45L86.25,2.73L86.99,3.03L87.70,3.35L88.39,3.68L89.05,4.03L89.69,4.40L90.30,4.79L90.88,5.19L91.44,5.61L91.99,6.05L92.51,6.51L93.01,6.99L93.49,7.49L93.95,8.01L94.39,8.56L94.81,9.12L95.21,9.70L95.60,10.31L95.97,10.95L96.32,11.61L96.65,12.30L96.97,13.01L97.27,13.75L97.55,14.53L97.82,15.34L98.07,16.19L98.31,17.07L98.53,18.00L98.73,18.97L98.92,19.99L99.09,21.07L99.25,22.22L99.39,23.44L99.52,24.74L99.63,26.15L99.73,27.68L99.81,29.37L99.88,31.27L99.93,33.47L99.97,36.13L99.99,39.74L100.00,50.00Z" fill="none" stroke="rgba(255,255,255,.10)" stroke-width=".7"></path>
    <path d="M97.00,48.50L96.99,58.45L96.97,61.95L96.93,64.54L96.88,66.67L96.82,68.51L96.74,70.15L96.65,71.64L96.54,73.00L96.41,74.27L96.27,75.45L96.12,76.56L95.95,77.61L95.77,78.60L95.57,79.54L95.36,80.44L95.13,81.30L94.89,82.12L94.63,82.91L94.35,83.66L94.06,84.38L93.75,85.07L93.43,85.74L93.09,86.38L92.73,86.99L92.36,87.59L91.96,88.15L91.55,88.70L91.13,89.23L90.68,89.73L90.22,90.22L89.73,90.68L89.23,91.13L88.70,91.55L88.15,91.96L87.59,92.36L86.99,92.73L86.38,93.09L85.74,93.43L85.07,93.75L84.38,94.06L83.66,94.35L82.91,94.63L82.12,94.89L81.30,95.13L80.44,95.36L79.54,95.57L78.60,95.77L77.61,95.95L76.56,96.12L75.45,96.27L74.27,96.41L73.00,96.54L71.64,96.65L70.15,96.74L68.51,96.82L66.67,96.88L64.54,96.93L61.95,96.97L58.45,96.99L48.50,97.00L38.55,96.99L35.05,96.97L32.46,96.93L30.33,96.88L28.49,96.82L26.85,96.74L25.36,96.65L24.00,96.54L22.73,96.41L21.55,96.27L20.44,96.12L19.39,95.95L18.40,95.77L17.46,95.57L16.56,95.36L15.70,95.13L14.88,94.89L14.09,94.63L13.34,94.35L12.62,94.06L11.93,93.75L11.26,93.43L10.62,93.09L10.01,92.73L9.41,92.36L8.85,91.96L8.30,91.55L7.77,91.13L7.27,90.68L6.78,90.22L6.32,89.73L5.87,89.23L5.45,88.70L5.04,88.15L4.64,87.59L4.27,86.99L3.91,86.38L3.57,85.74L3.25,85.07L2.94,84.38L2.65,83.66L2.37,82.91L2.11,82.12L1.87,81.30L1.64,80.44L1.43,79.54L1.23,78.60L1.05,77.61L0.88,76.56L0.73,75.45L0.59,74.27L0.46,73.00L0.35,71.64L0.26,70.15L0.18,68.51L0.12,66.67L0.07,64.54L0.03,61.95L0.01,58.45L0.00,48.50L0.01,38.55L0.03,35.05L0.07,32.46L0.12,30.33L0.18,28.49L0.26,26.85L0.35,25.36L0.46,24.00L0.59,22.73L0.73,21.55L0.88,20.44L1.05,19.39L1.23,18.40L1.43,17.46L1.64,16.56L1.87,15.70L2.11,14.88L2.37,14.09L2.65,13.34L2.94,12.62L3.25,11.93L3.57,11.26L3.91,10.62L4.27,10.01L4.64,9.41L5.04,8.85L5.45,8.30L5.87,7.77L6.32,7.27L6.78,6.78L7.27,6.32L7.77,5.87L8.30,5.45L8.85,5.04L9.41,4.64L10.01,4.27L10.62,3.91L11.26,3.57L11.93,3.25L12.62,2.94L13.34,2.65L14.09,2.37L14.88,2.11L15.70,1.87L16.56,1.64L17.46,1.43L18.40,1.23L19.39,1.05L20.44,0.88L21.55,0.73L22.73,0.59L24.00,0.46L25.36,0.35L26.85,0.26L28.49,0.18L30.33,0.12L32.46,0.07L35.05,0.03L38.55,0.01L48.50,0.00L58.45,0.01L61.95,0.03L64.54,0.07L66.67,0.12L68.51,0.18L70.15,0.26L71.64,0.35L73.00,0.46L74.27,0.59L75.45,0.73L76.56,0.88L77.61,1.05L78.60,1.23L79.54,1.43L80.44,1.64L81.30,1.87L82.12,2.11L82.91,2.37L83.66,2.65L84.38,2.94L85.07,3.25L85.74,3.57L86.38,3.91L86.99,4.27L87.59,4.64L88.15,5.04L88.70,5.45L89.23,5.87L89.73,6.32L90.22,6.78L90.68,7.27L91.13,7.77L91.55,8.30L91.96,8.85L92.36,9.41L92.73,10.01L93.09,10.62L93.43,11.26L93.75,11.93L94.06,12.62L94.35,13.34L94.63,14.09L94.89,14.88L95.13,15.70L95.36,16.56L95.57,17.46L95.77,18.40L95.95,19.39L96.12,20.44L96.27,21.55L96.41,22.73L96.54,24.00L96.65,25.36L96.74,26.85L96.82,28.49L96.88,30.33L96.93,32.46L96.97,35.05L96.99,38.55L97.00,48.50Z" transform="translate(1.5,1.5)" fill="none" stroke="rgba(255,255,255,.045)" stroke-width=".6"></path>
    <g transform="translate(21,21) scale(0.58)"><defs><linearGradient id="g16grad" x1="0" y1="1" x2="1" y2="0">
      <stop offset="0" stop-color="#3DE6A6"></stop><stop offset="1" stop-color="#34D6E8"></stop></linearGradient>
      <filter id="g16glow" x="-45%" y="-45%" width="190%" height="190%">
      <feGaussianBlur stdDeviation="2.2" result="b"></feGaussianBlur><feMerge><feMergeNode in="b"></feMergeNode><feMergeNode in="SourceGraphic"></feMergeNode></feMerge></filter></defs><path d="M 77.71 66.00 A 32 32 0 1 1 80.07 39.06" fill="none" stroke="rgba(255,255,255,.10)" stroke-width="12.5" stroke-linecap="round"></path><g filter="url(#g16glow)" fill="none" stroke="url(#g16grad)" stroke-width="12.5" stroke-linecap="round" stroke-linejoin="round">
      <path d="M 77.71 66.00 A 32 32 0 1 1 68.81 24.11"></path><path d="M 50 50 L 82 50 L 82 59.5"></path></g><circle cx="68.81" cy="24.11" r="6.25" fill="#34D6E8" filter="url(#g16glow)"></circle></g>
  </svg>